<svg width="134.121094" height="23.085938" viewBox="0 0 134.121 23.0859" fill="none" xmlns="http://www.w3.org/2000/svg" xmlns:xlink="http://www.w3.org/1999/xlink">
	<desc>
			Created with Pixso.
	</desc>
	<defs/>
	<path id="GREENMIND" d="M3.04 7.6Q3.04 5.77 3.09 4.06L5.28 10.73L7.57 17.92L11.88 3.89Q11.94 5.41 11.94 8.54Q11.94 10.44 11.8 14.6Q11.76 15.86 11.72 16.58Q11.69 17.09 11.52 17.55Q11.46 17.74 11.36 17.92L15.05 17.92Q14.92 17.69 14.84 17.46Q14.41 16.18 14.41 11.44Q14.41 8.62 14.56 4.98L14.64 2.9Q14.68 1.83 14.94 1.03Q15.11 0.5 15.69 0L11.12 0L7.85 11.06L5.71 4.25Q5.03 2 4.58 0L0 0Q0.29 0.25 0.48 0.53Q0.98 1.28 1.05 3.07L1.18 6.29Q1.27 8.62 1.27 11.44Q1.27 13.78 1.18 15.16Q1.13 15.84 1.04 16.57Q1.02 16.76 0.97 16.95Q0.84 17.46 0.51 17.92L3.78 17.92Q3.73 17.85 3.68 17.76Q3.46 17.38 3.36 16.94Q3.29 16.65 3.25 16.25Q3.21 15.86 3.12 12.98Q3.04 10.1 3.04 7.6ZM105.51 11.56Q105.51 16.07 104.97 17.92L108.43 17.92Q108.27 17.34 108.18 16.82Q108.15 16.53 108.05 15.62Q107.95 14.71 107.95 11.13L107.95 9.87Q107.95 8.02 107.2 6.96Q106.96 6.6 106.63 6.36Q106.47 6.24 106.29 6.14Q106.2 6.1 106.12 6.06Q105.64 5.85 105.08 5.85Q104.41 5.85 103.87 6.04Q103.48 6.17 103.12 6.37Q102.11 6.95 101.42 8.1Q101.42 6.85 101.46 5.21Q101.48 4.51 101.5 3.87Q101.53 3.23 101.58 2.21Q101.63 1.19 101.96 0.01L97.68 0.01L98.08 0.56Q98.26 0.8 98.4 1.1Q98.55 1.4 98.72 2.05Q98.89 2.7 98.95 5.26Q98.97 5.96 98.98 6.67Q99 7.38 99 9.31Q99 11.23 98.78 15.31Q98.69 16.94 98.41 17.92L101.87 17.92Q101.7 17.37 101.55 16.34Q101.42 15.56 101.42 12.26L101.42 10.03Q101.8 9.09 102.39 8.53Q102.51 8.41 102.64 8.32Q102.86 8.15 103.11 8.03Q103.52 7.85 104.02 7.85Q104.42 7.85 104.69 8.04Q104.76 8.08 104.81 8.13Q105.11 8.42 105.31 9.05Q105.51 9.67 105.51 11.56ZM37.55 6.93Q37.55 6.09 37.26 5.39Q36.99 5.84 36.64 5.97Q36.29 6.09 35.84 6.09Q35.39 6.09 34.26 5.94Q33.66 5.85 33.03 5.85Q31.69 5.85 30.77 6.47Q30.4 6.72 30.1 7.07Q29.58 7.65 29.32 8.45Q29.05 9.25 29.05 10.42Q29.05 10.89 29.11 11.35Q29.2 12.03 29.43 12.7Q29.85 13.92 30.59 14.91Q31.68 16.37 33.46 17.32Q35.07 18.16 36.31 18.16Q36.62 18 36.87 17.7Q37.13 17.41 37.18 17.1Q36.3 17.1 35.16 16.38Q34.6 16 34.04 15.45Q33.49 14.89 33.05 14.12Q32.61 13.35 32.34 12.39Q32.07 11.42 32.07 10.08Q32.07 8.74 32.57 7.89Q32.82 7.47 33.17 7.25Q33.21 7.23 33.24 7.21Q33.57 7.03 34 7.03Q34.24 7.03 34.47 7.09Q34.68 7.15 34.88 7.26Q36.04 7.94 36.56 11.13Q37.07 10.47 37.32 9.38Q37.44 8.87 37.5 8.32Q37.55 7.76 37.55 6.93ZM52.59 11.56Q52.59 16.07 52.05 17.92L55.51 17.92Q54.97 16.07 54.97 11.56L54.97 11Q54.97 10.72 54.98 10.45Q55.12 10.05 55.33 9.7Q56.11 8.38 56.93 8.36Q57.16 8.35 57.39 8.46Q58.31 8.84 58.74 11.13Q59.25 10.48 59.55 9.32Q59.69 8.78 59.76 8.22Q59.83 7.65 59.83 6.98Q59.83 6.31 59.44 5.39Q59.06 5.91 58.21 6.16Q56.47 6.67 55.41 7.81Q55.27 7.96 55.14 8.12Q55.27 6.83 55.48 6.09L51.32 6.09Q51.86 6.7 52.07 7.18Q52.59 8.35 52.59 11.56ZM95.18 6.7Q95.16 6.04 94.87 5.4Q94.67 5.63 94.38 5.81Q94.08 6 93.33 6L91.27 5.85Q89.71 5.85 88.63 6.58Q88.56 6.62 88.5 6.67Q87.85 7.16 87.56 7.8Q87.32 8.32 87.32 8.94Q87.32 9.27 87.39 9.59Q87.58 10.54 88.33 11.39Q88.83 11.95 90.18 12.75L91.24 13.34Q91.75 13.64 92.16 13.95Q92.56 14.27 92.81 14.63Q93.05 15 93.05 15.53Q93.05 15.7 93.01 15.86Q92.92 16.21 92.62 16.5Q92.19 16.92 91.26 16.92Q91.07 16.92 90.88 16.88Q90.18 16.73 89.6 16.03Q89.3 15.67 89.12 15.26Q89.11 15.23 89.09 15.19Q88.92 14.74 88.92 14.43Q88.92 14.13 88.96 13.98Q88.33 14.09 87.66 14.84Q87.04 15.54 86.9 16.32Q86.89 16.41 86.88 16.5Q87.02 16.8 87.35 17.1Q88.48 18.16 90.75 18.16Q93.18 18.16 94.42 16.94Q94.45 16.92 94.47 16.89Q94.91 16.46 95.15 15.94Q95.46 15.27 95.46 14.47Q95.46 14.34 95.44 14.21Q95.34 13.25 94.46 12.37Q93.96 11.87 92.6 11.1L91.54 10.51Q91.03 10.21 90.62 9.9Q90.22 9.59 89.97 9.24Q89.93 9.18 89.9 9.12Q89.73 8.8 89.73 8.39Q89.73 8.29 89.74 8.2Q89.82 7.82 90.23 7.51Q90.45 7.33 90.76 7.24Q91.06 7.14 91.54 7.14Q91.86 7.14 92.16 7.23Q92.31 7.27 92.45 7.33Q92.88 7.52 93.31 8.06Q93.73 8.6 94.1 10.41Q94.64 9.89 94.93 8.9Q95.06 8.47 95.12 8Q95.19 7.53 95.19 6.82Q95.19 6.76 95.18 6.7ZM26.4 13.92L26.43 11.67Q26.43 8.6 25.72 7.34Q25.5 6.96 25.19 6.67Q24.9 6.41 24.54 6.23Q23.78 5.85 22.52 5.85Q21.25 5.85 19.93 6.26L19.03 6.55Q18.63 6.67 18.18 6.67Q18 7.57 18 8.28Q18 9.76 18.73 10.43Q18.87 10.56 19.04 10.66Q19.38 9.24 20.17 8.2Q20.57 7.68 21.07 7.35Q21.54 7.04 22.03 7.03Q22.04 7.03 22.06 7.03Q22.55 7.03 22.87 7.2Q23.75 7.69 23.75 10.54L23.75 10.67Q21.09 10.72 19.33 11.81Q18.71 12.2 18.26 12.73Q18.06 12.97 17.9 13.23Q17.83 13.33 17.77 13.44Q17.35 14.22 17.35 15.23Q17.35 15.84 17.56 16.37Q17.75 16.83 18.1 17.22Q18.41 17.56 18.78 17.77Q19.45 18.16 20.35 18.16Q22.12 18.16 23.31 17.32Q23.76 17.01 24.12 16.57L24.49 17.92L27.89 17.92L27.33 17.48Q27.02 17.23 26.78 16.78Q26.4 16.01 26.4 13.92ZM48.53 13.92L48.57 11.67Q48.57 8.6 47.85 7.34Q47.63 6.96 47.32 6.67Q47.04 6.41 46.68 6.23Q45.92 5.85 44.66 5.85Q43.39 5.85 42.07 6.26L41.16 6.55Q40.76 6.67 40.32 6.67Q40.13 7.57 40.13 8.28Q40.13 9.76 40.87 10.43Q41.01 10.56 41.17 10.66Q41.51 9.24 42.31 8.2Q42.71 7.68 43.2 7.35Q43.68 7.04 44.17 7.03Q44.18 7.03 44.19 7.03Q44.69 7.03 45.01 7.2Q45.89 7.69 45.89 10.54L45.89 10.67Q43.23 10.72 41.47 11.81Q40.85 12.2 40.39 12.73Q40.2 12.97 40.03 13.23Q39.97 13.33 39.91 13.44Q39.49 14.22 39.49 15.23Q39.49 15.84 39.7 16.37Q39.89 16.83 40.24 17.22Q40.54 17.56 40.92 17.77Q41.59 18.16 42.49 18.16Q44.26 18.16 45.44 17.32Q45.9 17.01 46.26 16.57L46.62 17.92L50.02 17.92L49.47 17.48Q49.16 17.23 48.92 16.78Q48.53 16.01 48.53 13.92ZM63.08 6.99Q61.65 8.31 61.65 11.19Q61.65 14.42 63.01 16.31Q63.69 17.26 64.61 17.72Q65.49 18.16 66.58 18.16Q67.67 18.16 68.55 17.72Q69.47 17.26 70.16 16.31Q71.51 14.42 71.51 11.19Q71.51 8.31 70.08 6.99Q68.86 5.85 66.58 5.85Q64.31 5.85 63.08 6.99ZM75 11.56Q75 16.07 74.46 17.92L77.82 17.92Q77.28 16.07 77.28 11.56L77.28 10.89Q77.28 10.55 77.3 10.24Q77.66 9.24 78.32 8.6Q78.88 8.06 79.53 7.91Q79.78 7.85 80.05 7.85Q80.48 7.85 80.77 8.05Q80.83 8.09 80.88 8.13Q81.19 8.42 81.42 9.09Q81.65 9.76 81.65 11.56Q81.65 16.07 81.11 17.92L84.55 17.92Q84.38 17.37 84.3 16.82Q84.25 16.53 84.22 16.16Q84.18 15.78 84.12 15.07Q84.07 14.35 84.07 11.13L84.07 9.87Q84.07 8.03 83.29 6.96Q82.93 6.46 82.45 6.19Q81.86 5.85 81.08 5.85Q80.38 5.85 79.77 6.07Q78.44 6.55 77.47 8.03L77.56 7.19Q77.62 6.67 77.8 6.09L73.73 6.09L74.12 6.63Q74.29 6.89 74.43 7.18Q75 8.35 75 11.56ZM113.08 6.99Q111.65 8.31 111.65 11.19Q111.65 14.42 113.01 16.31Q113.69 17.26 114.62 17.72Q115.49 18.16 116.59 18.16Q117.68 18.16 118.55 17.72Q119.48 17.26 120.16 16.31Q121.52 14.42 121.52 11.19Q121.52 8.31 120.09 6.99Q118.86 5.85 116.59 5.85Q114.31 5.85 113.08 6.99ZM127.12 6.69Q127.01 6.76 126.91 6.84Q126.83 6.32 126.9 6.09L123.75 6.09L124.24 6.78Q124.53 7.18 124.72 7.85Q125.02 8.92 125.02 13.75Q125.02 15.25 124.98 17.25Q124.96 18.1 124.93 18.9Q124.91 19.71 124.85 20.83Q124.8 21.96 124.47 23.08L128.75 23.08L128.35 22.54Q127.73 21.66 127.62 20.4L127.51 19.16Q127.46 18.55 127.44 17.91Q128.04 17.9 128.63 17.77Q129.66 17.54 130.62 16.96Q131.37 16.52 132.01 15.85Q132.65 15.18 133.12 14.3Q133.59 13.42 133.85 12.33Q133.87 12.25 133.89 12.17Q134.12 11.15 134.12 10.08Q134.12 8.92 133.84 8.16Q133.49 7.23 132.82 6.67Q131.85 5.85 130.19 5.85Q128.37 5.85 127.12 6.69ZM65.79 7.22Q66.13 7.03 66.58 7.03Q67.03 7.03 67.37 7.22Q67.83 7.48 68.1 8.08Q68.56 9.14 68.56 11.63Q68.56 14.13 68.1 15.56Q67.76 16.61 67.09 16.89Q66.86 16.99 66.58 16.99Q66.34 16.99 66.13 16.91Q64.6 16.34 64.6 11.63Q64.6 9.14 65.06 8.08Q65.33 7.48 65.79 7.22ZM115.79 7.22Q116.14 7.03 116.59 7.03Q117.04 7.03 117.38 7.22Q117.84 7.48 118.1 8.08Q118.57 9.14 118.57 11.63Q118.57 14.13 118.1 15.56Q117.76 16.61 117.1 16.89Q116.86 16.99 116.59 16.99Q116.35 16.99 116.14 16.91Q114.6 16.34 114.6 11.63Q114.6 9.14 115.07 8.08Q115.33 7.48 115.79 7.22ZM130.11 7.17Q131.19 7.71 131.19 10.39Q131.19 13.04 130.16 14.8Q129.37 16.12 128.23 16.6Q127.84 16.77 127.4 16.83Q127.39 16.51 127.39 16.19L127.39 15.55L127.47 9.99Q127.47 8.58 128.08 7.78Q128.44 7.3 128.9 7.13Q129.17 7.03 129.49 7.03Q129.83 7.03 130.11 7.17ZM20.22 16.59Q19.88 16.19 19.88 15.46Q19.88 14.68 20.18 14.03Q20.47 13.4 21.04 12.91Q21.18 12.79 21.33 12.68Q22.32 11.95 23.75 11.82L23.75 13.55Q23.75 14.35 23.47 15.03Q23.25 15.55 22.87 16Q22.5 16.46 22.03 16.72Q21.67 16.92 21.3 16.97Q21.18 16.99 21.05 16.99Q20.82 16.99 20.63 16.9Q20.4 16.81 20.22 16.59ZM42.35 16.59Q42.02 16.19 42.02 15.46Q42.02 14.68 42.32 14.03Q42.61 13.4 43.18 12.91Q43.32 12.79 43.47 12.68Q44.46 11.95 45.89 11.82L45.89 13.55Q45.89 14.35 45.61 15.03Q45.39 15.55 45.01 16Q44.63 16.46 44.16 16.72Q43.81 16.92 43.44 16.97Q43.32 16.99 43.19 16.99Q42.96 16.99 42.77 16.9Q42.53 16.81 42.35 16.59Z" fill="#1E1E1E" fill-opacity="1.000000" fill-rule="evenodd"/>
</svg>
