<svg width="48.000000" height="48.000000" viewBox="0 0 48 48" fill="none" xmlns="http://www.w3.org/2000/svg" xmlns:xlink="http://www.w3.org/1999/xlink">
	<desc>
			Created with Pixso.
	</desc>
	<defs>
		<clipPath id="clip91_29">
			<rect id="icons8-телеграм" width="30.000000" height="30.000000" transform="translate(9.000000 9.000000)" fill="white" fill-opacity="0"/>
		</clipPath>
	</defs>
	<g clip-path="url(#clip91_29)">
		<path id="path" d="M24 10.2C31.62 10.2 37.8 16.37 37.8 24C37.8 31.62 31.62 37.8 24 37.8C16.37 37.8 10.2 31.62 10.2 24C10.2 16.37 16.37 10.2 24 10.2ZM28.76 29.62C29.01 28.84 30.2 21.08 30.35 19.55C30.39 19.09 30.24 18.78 29.96 18.64C29.61 18.48 29.1 18.56 28.5 18.77C27.68 19.07 17.24 23.5 16.63 23.76C16.06 24 15.52 24.27 15.52 24.65C15.52 24.92 15.68 25.07 16.12 25.23C16.58 25.4 17.74 25.75 18.42 25.94C19.08 26.12 19.83 25.96 20.25 25.7C20.69 25.42 25.83 21.98 26.2 21.68C26.57 21.38 26.86 21.77 26.56 22.07C26.26 22.37 22.73 25.79 22.27 26.27C21.7 26.84 22.11 27.44 22.48 27.68C22.92 27.95 26.03 30.04 26.5 30.37C26.96 30.71 27.44 30.86 27.87 30.86C28.31 30.86 28.54 30.29 28.76 29.62Z" fill="#1E1E1E" fill-opacity="0.750000" fill-rule="nonzero"/>
	</g>
	<circle id="Ellipse 2" cx="24.000000" cy="24.000000" r="23.500000" stroke="#1E1E1E" stroke-opacity="0.500000" stroke-width="1.000000"/>
</svg>
