<svg width="300.000000" height="300.000000" viewBox="0 0 300 300" fill="none" xmlns="http://www.w3.org/2000/svg" xmlns:xlink="http://www.w3.org/1999/xlink">
	<desc>
			Created with Pixso.
	</desc>
	<defs/>
	<path id="Vector" d="M0 10C0 7.34 1.05 4.8 2.92 2.92C4.8 1.05 7.34 0 10 0L40 0C42.23 0 44.39 0.74 46.15 2.12C47.91 3.49 49.16 5.41 49.7 7.58L57.8 40L290 40C291.47 40 292.92 40.32 294.25 40.95C295.58 41.57 296.76 42.48 297.69 43.61C298.63 44.74 299.31 46.06 299.68 47.49C300.04 48.91 300.09 50.39 299.82 51.84L269.82 211.84C269.39 214.13 268.18 216.2 266.39 217.69C264.59 219.18 262.33 219.99 260 220L80 220C77.67 219.99 75.41 219.18 73.62 217.69C71.82 216.2 70.61 214.13 70.18 211.84L40.2 52.14L32.2 20L10 20C7.34 20 4.8 18.94 2.92 17.07C1.05 15.19 0 12.65 0 10ZM62.04 60L88.3 200L251.7 200L277.96 60L62.04 60ZM100 220C89.39 220 79.21 224.21 71.71 231.71C64.21 239.21 60 249.39 60 260C60 270.6 64.21 280.78 71.71 288.28C79.21 295.78 89.39 300 100 300C110.61 300 120.78 295.78 128.28 288.28C135.78 280.78 140 270.6 140 260C140 249.39 135.78 239.21 128.28 231.71C120.78 224.21 110.61 220 100 220ZM240 220C229.39 220 219.22 224.21 211.72 231.71C204.22 239.21 200 249.39 200 260C200 270.6 204.22 280.78 211.72 288.28C219.22 295.78 229.39 300 240 300C250.61 300 260.79 295.78 268.29 288.28C275.79 280.78 280 270.6 280 260C280 249.39 275.79 239.21 268.29 231.71C260.79 224.21 250.61 220 240 220ZM100 240C105.3 240 110.39 242.1 114.14 245.85C117.89 249.6 120 254.69 120 260C120 265.3 117.89 270.39 114.14 274.14C110.39 277.89 105.3 280 100 280C94.69 280 89.61 277.89 85.86 274.14C82.1 270.39 80 265.3 80 260C80 254.69 82.1 249.6 85.86 245.85C89.61 242.1 94.69 240 100 240ZM240 240C245.31 240 250.39 242.1 254.15 245.85C257.9 249.6 260 254.69 260 260C260 265.3 257.9 270.39 254.15 274.14C250.39 277.89 245.31 280 240 280C234.7 280 229.61 277.89 225.86 274.14C222.11 270.39 220 265.3 220 260C220 254.69 222.11 249.6 225.86 245.85C229.61 242.1 234.7 240 240 240Z" fill="#67ABAB" fill-opacity="0.100000" fill-rule="nonzero"/>
</svg>
