<svg width="20.000763" height="19.997940" viewBox="0 0 20.0008 19.9979" fill="none" xmlns="http://www.w3.org/2000/svg" xmlns:xlink="http://www.w3.org/1999/xlink">
	<desc>
			Created with Pixso.
	</desc>
	<defs/>
	<path id="Vector" d="M14.67 12.92C15.88 11.27 16.43 9.22 16.19 7.19C15.96 5.15 14.96 3.28 13.41 1.95C11.85 0.62 9.85 -0.08 7.81 0C5.76 0.08 3.82 0.93 2.37 2.38C0.93 3.83 0.08 5.77 0 7.81C-0.08 9.86 0.62 11.86 1.96 13.41C3.29 14.97 5.16 15.96 7.19 16.19C9.23 16.43 11.28 15.88 12.93 14.67L12.93 14.67C12.96 14.72 13 14.77 13.05 14.81L17.86 19.63C18.1 19.86 18.41 19.99 18.75 19.99C19.08 19.99 19.39 19.86 19.63 19.63C19.86 19.39 20 19.07 20 18.74C20 18.41 19.86 18.09 19.63 17.86L14.82 13.05C14.77 13 14.72 12.96 14.67 12.92ZM15 8.12C15 9.02 14.82 9.91 14.47 10.75C14.13 11.58 13.62 12.34 12.98 12.98C12.34 13.62 11.59 14.12 10.75 14.47C9.92 14.81 9.02 14.99 8.12 14.99C7.22 14.99 6.32 14.81 5.49 14.47C4.66 14.12 3.9 13.62 3.26 12.98C2.62 12.34 2.11 11.58 1.77 10.75C1.42 9.91 1.25 9.02 1.25 8.12C1.25 6.29 1.97 4.55 3.26 3.26C4.55 1.97 6.3 1.24 8.12 1.24C9.94 1.24 11.69 1.97 12.98 3.26C14.27 4.55 15 6.29 15 8.12Z" fill="#1E1E1E" fill-opacity="1.000000" fill-rule="nonzero"/>
</svg>
