<svg width="48.000000" height="48.000000" viewBox="0 0 48 48" fill="none" xmlns="http://www.w3.org/2000/svg" xmlns:xlink="http://www.w3.org/1999/xlink">
	<desc>
			Created with Pixso.
	</desc>
	<defs>
		<clipPath id="clip91_31">
			<rect id="icons8-vk" width="30.000000" height="30.000000" transform="translate(9.000000 9.000000)" fill="white" fill-opacity="0"/>
		</clipPath>
	</defs>
	<g clip-path="url(#clip91_31)">
		<path id="path" d="M33.59 11.39L14.4 11.39C12.74 11.39 11.4 12.74 11.4 14.39L11.4 33.59C11.4 35.25 12.74 36.59 14.4 36.59L33.59 36.59C35.25 36.59 36.59 35.25 36.59 33.59L36.59 14.39C36.59 12.74 35.25 11.39 33.59 11.39ZM31.63 28.79L29.39 28.79C29.39 28.79 29.34 28.79 29.26 28.79C29.08 28.79 28.71 28.75 28.27 28.45C27.49 27.9 26.74 26.54 26.14 26.54C26.1 26.54 26.07 26.55 26.03 26.56C25.51 26.73 25.36 27.24 25.36 27.87C25.36 28.09 25.2 28.2 24.78 28.2L23.62 28.2C22.33 28.2 21.07 28.16 19.66 26.62C17.59 24.35 15.64 20.3 15.64 20.3C15.64 20.3 15.54 20.07 15.65 19.93C15.76 19.81 16.01 19.79 16.11 19.79L18.54 19.79C18.54 19.79 18.76 19.84 18.93 19.96C19.06 20.06 19.14 20.25 19.14 20.25C19.14 20.25 19.54 21.04 20.05 21.93C20.91 23.41 21.37 23.9 21.7 23.9C21.76 23.9 21.81 23.89 21.87 23.86C22.36 23.59 22.21 21.4 22.21 21.4C22.21 21.4 22.22 20.61 21.96 20.26C21.76 19.99 21.39 19.91 21.22 19.88C21.09 19.87 21.3 19.55 21.59 19.41C21.96 19.23 22.58 19.2 23.32 19.2L23.68 19.2C24.39 19.21 24.4 19.28 24.68 19.34C25.51 19.54 25.23 20.32 25.23 22.17C25.23 22.77 25.12 23.6 25.54 23.88C25.57 23.9 25.62 23.91 25.67 23.91C25.95 23.91 26.54 23.56 27.49 21.96C28.02 21.04 28.42 20.14 28.42 20.14C28.42 20.14 28.51 19.98 28.65 19.89C28.78 19.81 28.78 19.81 28.96 19.81C29.15 19.81 31.08 19.79 31.5 19.79C31.9 19.79 32.31 19.8 32.38 20.05C32.47 20.42 32.08 21.08 31.06 22.47C29.37 24.73 29.17 24.56 30.58 25.87C31.92 27.11 32.2 27.72 32.25 27.8C32.8 28.72 31.63 28.79 31.63 28.79Z" fill="#1E1E1E" fill-opacity="0.750000" fill-rule="nonzero"/>
	</g>
	<circle id="Ellipse 2" cx="24.000000" cy="24.000000" r="23.500000" stroke="#1E1E1E" stroke-opacity="0.500000" stroke-width="1.000000"/>
</svg>
