<svg width="48.000000" height="48.000000" viewBox="0 0 48 48" fill="none" xmlns="http://www.w3.org/2000/svg" xmlns:xlink="http://www.w3.org/1999/xlink">
	<desc>
			Created with Pixso.
	</desc>
	<defs>
		<clipPath id="clip91_27">
			<rect id="icons8-youtube" width="30.000000" height="30.000000" transform="translate(9.000000 9.000000)" fill="white" fill-opacity="0"/>
		</clipPath>
	</defs>
	<g clip-path="url(#clip91_27)">
		<path id="path" d="M35.93 17.7C35.7 16.38 34.56 15.41 33.23 15.11C31.26 14.7 27.6 14.39 23.63 14.39C19.68 14.39 15.96 14.7 13.98 15.11C12.66 15.41 11.51 16.31 11.28 17.7C11.03 19.2 10.8 21.29 10.8 24C10.8 26.7 11.03 28.79 11.33 30.29C11.58 31.61 12.71 32.58 14.03 32.88C16.13 33.29 19.73 33.59 23.7 33.59C27.66 33.59 31.26 33.29 33.36 32.88C34.68 32.58 35.81 31.68 36.06 30.29C36.3 28.79 36.59 26.63 36.66 24C36.53 21.29 36.23 19.2 35.93 17.7ZM20.4 28.2L20.4 19.79L27.71 24L20.4 28.2Z" fill="#1E1E1E" fill-opacity="0.750000" fill-rule="nonzero"/>
	</g>
	<circle id="Ellipse 2" cx="24.000000" cy="24.000000" r="23.500000" stroke="#1E1E1E" stroke-opacity="0.500000" stroke-width="1.000000"/>
</svg>
